<svg xmlns="http://www.w3.org/2000/svg" viewBox="0 0 1200 495.54"><defs><style>.cls-1{fill:none;}.cls-2{fill:#fff;}</style></defs><g id="Capa_2" data-name="Capa 2"><g id="Capa_1-2" data-name="Capa 1"><rect class="cls-1" width="1200" height="495.54"/><path class="cls-2" d="M468.66,212.91l-94.8,27.71-.35.13c-.26-1.32-.56-2.6-.9-3.85a97.78,97.78,0,0,0-25.12-39.08,99.21,99.21,0,0,0-163.4,42.62,148.94,148.94,0,0,1,284.57-27.53Z"/><path class="cls-2" d="M218.78,156.63a159.72,159.72,0,0,0-42.51,85.81A137.6,137.6,0,0,1,397,119.18,161,161,0,0,0,218.78,156.63Z"/><path class="cls-2" d="M89.16,285.21,184,257.49l.35-.12q.39,2,.9,3.84a98.13,98.13,0,0,0,28,41.72c38.16,33.76,97.48,32.58,134.27-2.67a98.62,98.62,0,0,0,26.26-42.59,149,149,0,0,1-249.24,79.81A147.62,147.62,0,0,1,89.16,285.21Z"/><path class="cls-2" d="M339,341.48a159.65,159.65,0,0,0,42.51-85.81A137.6,137.6,0,0,1,160.79,378.94,161,161,0,0,0,339,341.48Z"/><polygon class="cls-2" points="985.1 218.78 1078.56 347.93 1110.85 347.93 1017.66 218.78 985.1 218.78"/><path class="cls-2" d="M528.5,347.93V151.27h30.16v79.6h91.21v-79.6H680V347.93H649.87V257.86H558.66v90.07Z"/><path class="cls-2" d="M836,288.05H740q1,16.86,10,26.29t23.95,9.44q13.29,0,22.17-5.58t15.46-18l23.18,12.93q-10.14,18.12-25.09,27T774.54,349q-28.89,0-46-17.61t-17.1-47q0-28.25,17.67-46.44t45.42-18.18q29,0,45.23,16.6T836,282.86Zm-28.51-18.49q-1.65-12.93-9.88-19.7t-22.55-6.78q-13.56,0-21.8,6.58t-11.52,19.9Z"/><path class="cls-2" d="M867.39,347.93V151.56h27.49V347.93Z"/><path class="cls-2" d="M922.55,175.89a16.36,16.36,0,0,1,5.14-12,16.82,16.82,0,0,1,12.22-5.07A16.66,16.66,0,0,1,957,175.89a16.87,16.87,0,0,1-4.94,12.35,16.38,16.38,0,0,1-12.16,5,17.54,17.54,0,0,1-17.36-17.35Zm3.68,172V219.28h27.49V347.93Z"/><polygon class="cls-2" points="1047.97 305.67 1110.85 218.78 1078.28 218.78 1031.78 283.23 1047.97 305.67"/><polygon class="cls-2" points="1024.88 292.8 985.1 347.93 1017.39 347.93 1041.08 315.19 1024.88 292.8"/></g></g></svg>